<?xml version="1.0" encoding="UTF-8" standalone="no"?>
<!-- Created with Inkscape (http://www.inkscape.org/) -->

<svg
   xmlns:dc="http://purl.org/dc/elements/1.1/"
   xmlns:cc="http://creativecommons.org/ns#"
   xmlns:rdf="http://www.w3.org/1999/02/22-rdf-syntax-ns#"
   xmlns:svg="http://www.w3.org/2000/svg"
   xmlns="http://www.w3.org/2000/svg"
   xmlns:sodipodi="http://sodipodi.sourceforge.net/DTD/sodipodi-0.dtd"
   xmlns:inkscape="http://www.inkscape.org/namespaces/inkscape"
   width="210"
   height="120"
   viewBox="0 0 210 120"
   version="1.1"
   id="svg18437"
   inkscape:version="0.92.2 5c3e80d, 2017-08-06"
   sodipodi:docname="logo-text.svg">
  <defs
     id="defs18431" />
  <sodipodi:namedview
     id="base"
     pagecolor="#ffffff"
     bordercolor="#666666"
     borderopacity="1.0"
     inkscape:pageopacity="0.0"
     inkscape:pageshadow="2"
     inkscape:zoom="1.4"
     inkscape:cx="165.81388"
     inkscape:cy="76.860585"
     inkscape:document-units="px"
     inkscape:current-layer="svg18437"
     showgrid="false"
     inkscape:pagecheckerboard="true"
     borderlayer="true"
     fit-margin-top="0"
     fit-margin-left="0"
     fit-margin-right="0"
     fit-margin-bottom="0"
     inkscape:window-width="1920"
     inkscape:window-height="1051"
     inkscape:window-x="0"
     inkscape:window-y="0"
     inkscape:window-maximized="1"
     units="px" />
  <metadata
     id="metadata18434">
    <rdf:RDF>
      <cc:Work
         rdf:about="">
        <dc:format>image/svg+xml</dc:format>
        <dc:type
           rdf:resource="http://purl.org/dc/dcmitype/StillImage" />
        <dc:title></dc:title>
      </cc:Work>
    </rdf:RDF>
  </metadata>
  <g
     id="g837"
     inkscape:label="kielecka masa krytyczna"
     transform="translate(-93.737569,-62.912512)">
    <path
       inkscape:label="masa krytyczna"
       d="m 93.737568,131.93136 v -25.32523 h 7.936542 v 3.47468 c 0.83946,-1.38356 1.86922,-2.41709 3.10477,-3.09302 1.22772,-0.67592 2.70094,-1.00991 4.41977,-1.00991 1.8218,0 3.33454,0.33399 4.53065,1.00991 1.20381,0.67593 2.10685,1.70946 2.73251,3.09302 0.81579,-1.36766 1.85349,-2.39319 3.12076,-3.07721 1.25938,-0.68378 2.74062,-1.02572 4.44352,-1.02572 2.70881,0 4.75236,0.75545 6.13841,2.25822 1.38613,1.51086 2.07525,3.74519 2.07525,6.71096 v 16.9843 h -8.07907 v -14.47163 c 0,-1.92424 -0.27719,-3.26813 -0.82374,-4.0392 -0.54655,-0.77142 -1.48112,-1.15302 -2.79597,-1.15302 -1.33061,0 -2.31276,0.50095 -2.94647,1.49481 -0.6336,0.99395 -0.95046,2.52863 -0.95046,4.61189 v 13.55715 h -7.31073 v -14.47163 c 0,-1.92424 -0.27719,-3.26813 -0.82373,-4.0392 -0.54655,-0.77142 -1.48113,-1.15302 -2.79601,-1.15302 -1.33073,0 -2.3128,0.50095 -2.94652,1.49481 -0.63355,0.99395 -0.95037,2.52863 -0.95037,4.61189 v 13.55715 z m 56.288052,-11.92709 c -0.63372,0.39757 -1.75052,0.77127 -3.34256,1.11321 -0.77612,0.15902 -1.36234,0.28617 -1.76625,0.39756 -0.99005,0.27822 -1.69504,0.63611 -2.09907,1.07349 -0.41177,0.43723 -0.61767,1.01772 -0.61767,1.74926 0,0.89857 0.27718,1.62998 0.83946,2.17875 0.55449,0.54862 1.29106,0.82684 2.20196,0.82684 1.40984,0 2.55838,-0.40556 3.44557,-1.22455 0.8949,-0.81093 1.33856,-1.88442 1.33856,-3.20441 z m 9.09282,11.92709 h -8.41959 c -0.0951,-0.40552 -0.17426,-0.81903 -0.24558,-1.25626 -0.0712,-0.43729 -0.13458,-0.88262 -0.19792,-1.35171 -1.15648,1.16892 -2.39214,2.02749 -3.69897,2.58421 -1.30694,0.56444 -2.74061,0.84265 -4.30886,0.84265 -2.42375,0 -4.34853,-0.67578 -5.76631,-2.01938 -1.41778,-1.3439 -2.12258,-3.15694 -2.12258,-5.43894 0,-2.09915 0.55434,-3.80065 1.65542,-5.11269 1.10882,-1.31998 2.78,-2.23446 5.02954,-2.76718 1.23566,-0.27822 2.80391,-0.58048 4.71272,-0.90647 2.84359,-0.46899 4.26931,-1.15302 4.26931,-2.05144 v -0.60434 c 0,-0.73141 -0.27731,-1.28813 -0.82374,-1.66184 -0.54655,-0.38161 -1.36234,-0.57248 -2.44754,-0.57248 -1.18014,0 -2.10685,0.23864 -2.796,0.72355 -0.68896,0.47709 -1.12471,1.18487 -1.29111,2.11511 h -7.6117 c 0.40399,-2.85462 1.58413,-4.98554 3.54052,-6.37706 1.95651,-1.39938 4.73651,-2.09921 8.34053,-2.09921 2.24148,0 4.13456,0.27027 5.6712,0.81918 1.54442,0.54048 2.74839,1.35951 3.6118,2.46486 0.60183,0.79503 1.02964,1.73336 1.27522,2.83076 0.24542,1.09725 0.37225,2.85438 0.37225,5.27176 v 9.60524 c 0,1.15302 0.10286,2.05159 0.31682,2.71141 0.20591,0.66002 0.51482,1.09725 0.93457,1.29613 z m 0.98624,-7.72867 h 8.26119 c 0.0951,1.12101 0.50695,1.95581 1.2436,2.51253 0.72863,0.56458 1.79794,0.8428 3.18399,0.8428 1.16434,0 2.07524,-0.22259 2.74053,-0.67578 0.66533,-0.45318 0.99807,-1.05758 0.99807,-1.82084 0,-0.97805 -1.29904,-1.79709 -3.89693,-2.46506 -1.39411,-0.35785 -2.51084,-0.67592 -3.3584,-0.96196 -3.16036,-1.03381 -5.32262,-2.12325 -6.47909,-3.24427 -1.16427,-1.12911 -1.74258,-2.60797 -1.74258,-4.44487 0,-2.56049 0.97424,-4.57207 2.92272,-6.04298 1.94845,-1.47105 4.63362,-2.20259 8.05528,-2.20259 3.65144,0 6.46333,0.62796 8.44351,1.87642 1.98009,1.24845 3.09698,3.11707 3.34243,5.59793 h -7.9365 c -0.16627,-0.85089 -0.55441,-1.48686 -1.15636,-1.89252 -0.60989,-0.41351 -1.44157,-0.62006 -2.51084,-0.62006 -0.99013,0 -1.75052,0.19073 -2.28123,0.57239 -0.53066,0.38166 -0.79991,0.91447 -0.79991,1.61417 0,0.99385 1.34646,1.86065 4.03152,2.5841 0.64956,0.17493 1.15648,0.31818 1.51285,0.42157 2.50297,0.7314 4.24551,1.28017 5.21972,1.64588 0.97436,0.3657 1.67924,0.70764 2.10705,1.03367 0.9109,0.66797 1.58413,1.44729 2.01969,2.32966 0.43563,0.89071 0.64948,1.92448 0.64948,3.10127 0,2.75107 -1.06931,4.9059 -3.20003,6.45649 -2.13843,1.55053 -5.11671,2.32961 -8.93442,2.32961 -3.74638,0 -6.7008,-0.74721 -8.86309,-2.23418 -2.16245,-1.4948 -3.35844,-3.59401 -3.57225,-6.31338 z m 41.31002,-4.19842 c -0.63371,0.39757 -1.75048,0.77127 -3.34244,1.11321 -0.77624,0.15902 -1.3625,0.28618 -1.76636,0.39757 -0.99009,0.27821 -1.69509,0.6361 -2.09892,1.07348 -0.41196,0.43723 -0.61787,1.01772 -0.61787,1.74926 0,0.89857 0.27715,1.62998 0.83962,2.17875 0.55434,0.54862 1.29094,0.82684 2.20185,0.82684 1.4098,0 2.55833,-0.40556 3.44553,-1.22455 0.89505,-0.81093 1.33859,-1.88442 1.33859,-3.20441 z m 9.09299,11.92709 h -8.41976 c -0.0951,-0.40552 -0.17429,-0.81903 -0.24542,-1.25626 -0.0714,-0.43729 -0.13482,-0.88262 -0.19812,-1.35171 -1.15648,1.16892 -2.39214,2.02749 -3.69897,2.58421 -1.30694,0.56444 -2.74057,0.84265 -4.30882,0.84265 -2.42375,0 -4.34841,-0.67578 -5.76627,-2.01938 -1.41766,-1.3439 -2.12266,-3.15694 -2.12266,-5.43894 0,-2.09915 0.55438,-3.80065 1.65542,-5.11269 1.10886,-1.31998 2.78012,-2.23446 5.02954,-2.76718 1.2357,-0.27822 2.80399,-0.58048 4.71289,-0.90647 2.84342,-0.46899 4.26918,-1.15302 4.26918,-2.05144 v -0.60434 c 0,-0.73141 -0.2773,-1.28813 -0.82377,-1.66184 -0.54655,-0.38161 -1.36235,-0.57248 -2.4475,-0.57248 -1.18015,0 -2.1069,0.23864 -2.79605,0.72355 -0.68896,0.47709 -1.12455,1.18487 -1.29106,2.11511 h -7.61175 c 0.40403,-2.85462 1.58417,-4.98554 3.54068,-6.37706 1.95639,-1.39938 4.73655,-2.09921 8.34041,-2.09921 2.24148,0 4.13453,0.27027 5.6712,0.81918 1.54446,0.54048 2.7484,1.35951 3.61181,2.46486 0.60194,0.79503 1.0296,1.73336 1.27517,2.83076 0.24546,1.09725 0.37226,2.85438 0.37226,5.27176 v 9.60524 c 0,1.15302 0.10305,2.05159 0.3169,2.71141 0.2059,0.66002 0.51478,1.09725 0.93469,1.29613 z M 93.737568,172.56772 v -34.3103 h 8.118622 v 17.6998 l 7.6117,-8.71482 h 9.70292 l -8.7523,9.66901 8.98183,15.65631 h -9.16407 l -5.33861,-10.01874 -3.04147,3.1885 v 6.83024 z m 27.349952,0 V 147.2424 h 7.93651 v 4.42897 c 0.87917,-1.74132 1.98005,-3.01354 3.29498,-3.80867 1.31485,-0.80308 2.98599,-1.21659 5.01366,-1.24845 v 8.20591 c -0.35641,-0.0477 -0.70484,-0.0875 -1.05347,-0.11125 -0.34843,-0.0238 -0.68113,-0.0319 -0.99005,-0.0319 -1.26727,0 -2.31268,0.19091 -3.14431,0.57238 -0.8318,0.3818 -1.48919,0.96229 -1.98816,1.75741 -0.30892,0.52473 -0.52288,1.28813 -0.65751,2.27399 -0.13462,0.98601 -0.19796,2.57631 -0.19796,4.78685 v 8.50005 z m 33.98746,2.8228 c -0.84757,2.36148 -1.57623,3.99969 -2.17818,4.91387 -0.60199,0.91448 -1.29888,1.55059 -2.09101,1.90844 -0.58622,0.24649 -1.29904,0.42942 -2.14656,0.53271 -0.83963,0.11134 -2.32869,0.16697 -4.46727,0.16697 h -2.17802 v -6.56784 h 1.59986 c 1.53664,0 2.58216,-0.19073 3.14455,-0.58049 0.56232,-0.38961 0.84741,-1.05753 0.84741,-2.00377 0,-0.63596 -0.38016,-1.93204 -1.13261,-3.89624 -0.0318,-0.0715 -0.0633,-0.14297 -0.095,-0.20669 l -8.491,-22.41508 h 8.88692 l 4.72873,17.26266 4.85537,-17.26266 h 8.79185 z m 8.81564,-23.13867 v -5.00945 h 3.39005 v -7.17209 h 8.26126 v 7.17209 h 4.22174 v 5.00945 h -4.22174 v 10.9729 c 0,1.67788 0.21389,2.78299 0.64945,3.32376 0.43559,0.54862 1.24348,0.81903 2.43959,0.81903 0.26146,0 0.46725,0 0.60981,-0.008 0.15063,-0.008 0.29303,-0.0238 0.42782,-0.0397 v 5.29563 c -0.84757,0.16711 -1.69509,0.30227 -2.52681,0.38975 -0.83148,0.0954 -1.63937,0.14306 -2.41565,0.14306 -2.85947,0 -4.81574,-0.69968 -5.86916,-2.10716 -1.05359,-1.40748 -1.57631,-4.40506 -1.57631,-8.98508 v -9.80411 z m 32.18952,23.13867 c -0.84757,2.36148 -1.57627,3.99969 -2.17818,4.91387 -0.60199,0.91448 -1.29905,1.55059 -2.09101,1.90844 -0.58626,0.24649 -1.29905,0.42942 -2.14657,0.53271 -0.83962,0.11134 -2.32868,0.16697 -4.46731,0.16697 h -2.17801 v -6.56784 h 1.59985 c 1.53668,0 2.58217,-0.19073 3.1446,-0.58049 0.56231,-0.38961 0.8474,-1.05753 0.8474,-2.00377 0,-0.63596 -0.38019,-1.93204 -1.13261,-3.89624 -0.0318,-0.0715 -0.0634,-0.14297 -0.095,-0.20669 l -8.49099,-22.41508 h 8.88696 l 4.72856,17.26266 4.85541,-17.26266 h 8.79186 z m 31.93591,-12.20544 c -0.41971,3.21237 -1.70286,5.71709 -3.86516,7.51403 -2.1545,1.78913 -4.97414,2.68765 -8.45926,2.68765 -3.75437,0 -6.78023,-1.2086 -9.06916,-3.62589 -2.28913,-2.40924 -3.43767,-5.6057 -3.43767,-9.58147 0,-4.29371 1.15644,-7.66514 3.47734,-10.1381 2.32066,-2.47277 5.48102,-3.70527 9.47302,-3.70527 3.4613,0 6.24937,0.87451 8.3642,2.62393 2.1148,1.74146 3.30289,4.1587 3.56431,7.25176 h -8.33259 c -0.22969,-1.17692 -0.65734,-2.06734 -1.27521,-2.65578 -0.61784,-0.58849 -1.41779,-0.88262 -2.39199,-0.88262 -1.42572,0 -2.50294,0.61221 -3.24749,1.84471 -0.74451,1.22455 -1.11676,3.02945 -1.11676,5.40701 0,2.32976 0.34847,4.06312 1.05346,5.20819 0.7048,1.13706 1.7821,1.70945 3.21568,1.70945 1.0852,0 1.94845,-0.30213 2.59015,-0.90638 0.64162,-0.60439 1.08499,-1.52681 1.31484,-2.75122 z m 0.20603,9.38264 v -6.1067 l 12.55416,-13.25503 h -11.73837 v -5.96359 h 22.03528 v 5.96359 l -12.45916,13.25503 h 12.87892 v 6.1067 z m 25.20351,0 V 147.2424 h 8.07116 v 3.47483 c 0.87123,-1.38347 1.9326,-2.41729 3.18399,-3.09307 1.25155,-0.67593 2.74855,-1.00991 4.47521,-1.00991 2.95442,0 5.09308,0.7395 6.41575,2.2265 1.32279,1.47891 1.98812,3.90396 1.98812,7.25163 v 16.47534 h -8.26119 v -12.74607 c 0,-2.98168 -0.24569,-4.88229 -0.74463,-5.69337 -0.49099,-0.81885 -1.40987,-1.22441 -2.74061,-1.22441 -1.44935,0 -2.51076,0.48504 -3.17608,1.45514 -0.66541,0.96996 -0.99799,2.52063 -0.99799,4.65156 v 13.55715 z m 41.21912,-11.92703 c -0.63372,0.39756 -1.75049,0.77122 -3.34252,1.11315 -0.77628,0.15902 -1.36238,0.28623 -1.76641,0.39757 -0.99005,0.27836 -1.69493,0.63611 -2.09895,1.07334 -0.41181,0.43742 -0.61779,1.01791 -0.61779,1.74946 0,0.89837 0.27714,1.62992 0.83958,2.17869 0.55453,0.54863 1.2911,0.82684 2.20196,0.82684 1.40988,0 2.55838,-0.40537 3.44545,-1.2244 0.89498,-0.81117 1.33868,-1.88457 1.33868,-3.20442 z m 9.09286,11.92703 h -8.41959 c -0.0951,-0.40551 -0.1743,-0.81889 -0.24558,-1.2564 -0.0713,-0.43724 -0.13462,-0.88248 -0.19808,-1.35171 -1.15648,1.16892 -2.39202,2.02777 -3.69885,2.58425 -1.30695,0.56468 -2.74057,0.8429 -4.30886,0.8429 -2.42371,0 -4.34849,-0.67593 -5.76627,-2.01968 -1.41778,-1.3439 -2.12274,-3.15674 -2.12274,-5.43887 0,-2.09907 0.55449,-3.80056 1.65542,-5.1126 1.10882,-1.31999 2.78008,-2.23446 5.0297,-2.76714 1.2355,-0.27835 2.80375,-0.58048 4.71268,-0.90651 2.84346,-0.4691 4.26931,-1.15302 4.26931,-2.05154 v -0.60411 c 0,-0.73169 -0.27731,-1.28813 -0.82386,-1.66193 -0.54643,-0.38179 -1.36222,-0.57253 -2.44742,-0.57253 -1.18027,0 -2.10685,0.23855 -2.79597,0.7237 -0.68911,0.47694 -1.12471,1.18473 -1.2911,2.11487 h -7.6117 c 0.40382,-2.85452 1.58409,-4.98539 3.54052,-6.37696 1.95634,-1.39953 4.73647,-2.09921 8.34037,-2.09921 2.24147,0 4.13468,0.2704 5.6712,0.81903 1.54458,0.54081 2.74851,1.3597 3.6118,2.46491 0.60195,0.79513 1.02976,1.73351 1.27522,2.83076 0.24557,1.09725 0.37225,2.85461 0.37225,5.27171 v 9.60543 c 0,1.15302 0.10301,2.05139 0.31682,2.71155 0.20606,0.65983 0.51482,1.09725 0.93473,1.29608 z"
       style="fill:#231f20;fill-opacity:1;fill-rule:nonzero;stroke:none;stroke-width:0.47533926"
       id="path300-3"
       inkscape:connector-curvature="0" />
    <path
       inkscape:label="kielecka"
       d="M 93.737568,97.230771 V 62.920326 h 8.118622 v 17.6998 l 7.6117,-8.714579 h 9.70292 l -8.7523,9.668719 8.98183,15.656505 h -9.16407 l -5.33861,-10.018893 -3.04147,3.188457 v 6.830436 z M 120.38657,69.599555 v -6.687042 h 8.21358 v 6.687042 z m 0,27.631216 V 71.905547 h 8.21358 v 25.325224 z m 18.72041,-15.354237 9.40174,-0.02388 c -0.0318,-1.630076 -0.45938,-2.902293 -1.29102,-3.81677 -0.82382,-0.914322 -1.95643,-1.375467 -3.39804,-1.375467 -1.36234,0 -2.44734,0.453049 -3.26329,1.351757 -0.81579,0.898517 -1.29904,2.186646 -1.44939,3.864377 z m 8.98187,7.386879 h 7.9365 c -0.73657,2.782943 -2.20192,4.929823 -4.37215,6.456641 -2.17818,1.51867 -4.87118,2.281943 -8.08702,2.281943 -3.91277,0 -7.00975,-1.192832 -9.283,-3.578073 -2.27313,-2.385381 -3.41384,-5.629604 -3.41384,-9.748491 0,-4.190414 1.14854,-7.51403 3.43763,-9.963178 2.28897,-2.441004 5.37027,-3.665554 9.25921,-3.665554 4.00785,0 7.15233,1.240507 9.44146,3.729269 2.28909,2.48087 3.43762,5.915828 3.43762,10.289072 0,0.405662 0,0.715599 -0.008,0.92243 -0.008,0.214636 -0.0238,0.389462 -0.0399,0.548626 h -17.06118 c 0,1.788937 0.38024,3.148786 1.14854,4.094977 0.76834,0.938235 1.89305,1.407468 3.38211,1.407468 1.0931,0 2.004,-0.230732 2.71678,-0.69983 0.7129,-0.469093 1.21188,-1.160974 1.50491,-2.0753 z m 9.96807,7.967358 V 62.920326 h 8.26134 v 34.310445 z m 18.29291,-15.354237 9.40178,-0.02388 c -0.0318,-1.630076 -0.45947,-2.902293 -1.29111,-3.81677 -0.82373,-0.914322 -1.95642,-1.375467 -3.39795,-1.375467 -1.36238,0 -2.44742,0.453049 -3.26337,1.351757 -0.8158,0.898517 -1.29889,2.186646 -1.44935,3.864377 z m 8.98191,7.386879 h 7.9365 c -0.73661,2.782943 -2.202,4.929823 -4.37224,6.456641 -2.17813,1.51867 -4.87109,2.281943 -8.08697,2.281943 -3.91281,0 -7.00964,-1.192832 -9.283,-3.578073 -2.27313,-2.385381 -3.41372,-5.629604 -3.41372,-9.748491 0,-4.190414 1.14853,-7.51403 3.43751,-9.963178 2.28913,-2.441004 5.37022,-3.665554 9.25921,-3.665554 4.00789,0 7.15244,1.240507 9.44141,3.729269 2.28913,2.48087 3.43767,5.915828 3.43767,10.289072 0,0.405662 0,0.715599 -0.008,0.92243 -0.008,0.214636 -0.0238,0.389462 -0.0399,0.548626 h -17.06098 c 0,1.788937 0.38004,3.148786 1.14853,4.094977 0.76818,0.938235 1.89289,1.407468 3.38192,1.407468 1.09313,0 2.004,-0.230732 2.71682,-0.69983 0.71294,-0.469093 1.21184,-1.160974 1.50491,-2.0753 z m 34.36372,-1.415285 c -0.41975,3.212366 -1.70287,5.71695 -3.8652,7.514031 -2.15459,1.78908 -4.9743,2.687505 -8.45943,2.687505 -3.75432,0 -6.77998,-1.208641 -9.06915,-3.62574 -2.28897,-2.409286 -3.43751,-5.605843 -3.43751,-9.581665 0,-4.293665 1.15652,-7.664951 3.47718,-10.13796 2.32074,-2.472858 5.48106,-3.705365 9.47318,-3.705365 3.46118,0 6.24936,0.874751 8.36408,2.62407 2.11495,1.741314 3.303,4.158553 3.56435,7.251572 h -8.33247 c -0.22973,-1.176736 -0.65739,-2.067296 -1.27522,-2.655783 -0.61783,-0.588293 -1.4179,-0.882465 -2.39214,-0.882465 -1.42568,0 -2.50282,0.612202 -3.24749,1.844748 -0.74435,1.224407 -1.11673,3.0293 -1.11673,5.406869 0,2.329761 0.34855,4.063119 1.05339,5.208185 0.70504,1.137065 1.78225,1.7096 3.21588,1.7096 1.08504,0 1.94848,-0.302124 2.5901,-0.906373 0.6415,-0.604396 1.08504,-1.526822 1.31473,-2.751229 z m 0.55044,9.382643 V 62.920326 h 8.11858 v 17.6998 l 7.61179,-8.714579 h 9.70287 l -8.75234,9.668719 8.98191,15.656505 h -9.16414 l -5.33846,-10.018893 -3.04163,3.188457 v 6.830436 z m 39.56748,-11.927092 c -0.63372,0.39743 -1.75036,0.771134 -3.34244,1.113068 -0.77624,0.159157 -1.36238,0.286316 -1.76633,0.39757 -0.99012,0.278355 -1.69508,0.636106 -2.09895,1.073478 -0.41181,0.43724 -0.61787,1.017723 -0.61787,1.74927 0,0.898565 0.27719,1.630116 0.83962,2.178885 0.55449,0.548483 1.2911,0.826846 2.202,0.826846 1.4098,0 2.55834,-0.405562 3.44538,-1.224551 0.89505,-0.81094 1.33859,-1.884426 1.33859,-3.204413 z m 9.09298,11.927092 h -8.41975 c -0.0951,-0.405657 -0.17429,-0.819028 -0.24542,-1.256407 -0.0714,-0.43738 -0.13466,-0.882612 -0.19812,-1.351705 -1.15648,1.168927 -2.39198,2.027629 -3.69893,2.584211 -1.30694,0.564575 -2.74045,0.842794 -4.3087,0.842794 -2.42375,0 -4.34857,-0.675777 -5.76643,-2.019526 -1.41762,-1.343764 -2.12265,-3.156798 -2.12265,-5.438781 0,-2.099166 0.55437,-3.80081 1.65541,-5.112844 1.10886,-1.319848 2.78016,-2.234313 5.02958,-2.767034 1.23566,-0.278459 2.80395,-0.580587 4.71284,-0.906469 2.84351,-0.469145 4.26919,-1.15303 4.26919,-2.051543 v -0.604244 c 0,-0.731556 -0.27723,-1.28813 -0.82377,-1.661838 -0.54655,-0.381749 -1.36223,-0.572623 -2.4475,-0.572623 -1.18011,0 -2.10678,0.238641 -2.79601,0.723687 -0.68896,0.47695 -1.12459,1.184736 -1.29094,2.115018 h -7.61187 c 0.40403,-2.854665 1.58413,-4.985445 3.54064,-6.376964 1.95643,-1.399524 4.73655,-2.09921 8.34041,-2.09921 2.24152,0 4.13468,0.270263 5.6712,0.819036 1.54446,0.540622 2.74848,1.359658 3.6118,2.465009 0.60195,0.795032 1.02964,1.733358 1.27518,2.83061 0.24558,1.097247 0.37226,2.854526 0.37226,5.271904 V 92.269 c 0,1.152966 0.10305,2.051387 0.31689,2.711506 0.20603,0.659872 0.51482,1.097251 0.93469,1.29613 z"
       style="fill:#ffffff;fill-opacity:1;fill-rule:nonzero;stroke:none;stroke-width:0.47533926"
       id="path306-6"
       inkscape:connector-curvature="0" />
  </g>
</svg>
